<mxfile host="app.diagrams.net" modified="2024-06-04T15:10:29.946Z" agent="Mozilla/5.0 (Windows NT 10.0; Win64; x64) AppleWebKit/537.36 (KHTML, like Gecko) Chrome/123.0.0.0 Safari/537.36 Edg/123.0.0.0" version="24.4.13" etag="s7SGVIHQRizkL75AGbJP" type="github">
  <diagram name="第 1 页" id="jPFjo1I_E2jxrJ5uGAYG">
    <mxGraphModel>
      <root>
        <mxCell id="0" />
        <mxCell id="1" parent="0" />
      </root>
    </mxGraphModel>
  </diagram>
</mxfile>
